{"accessors" : [{"bufferView" : 0, "byteOffset" : 0, "componentType" : 5123, "count" : 3588, "type" : "SCALAR", "max" : [3587], "min" : [0]}, {"bufferView" : 1, "byteOffset" : 0, "componentType" : 5126, "count" : 3588, "type" : "VEC3", "max" : [0.8000000715255737, 0.18000000715255737, 0.7599999904632568], "min" : [-0.8000000715255737, -0.18000000715255737, 0.05000000074505806], "name" : "POSITION"}, {"bufferView" : 1, "byteOffset" : 12, "componentType" : 5126, "count" : 3588, "type" : "VEC2", "max" : [0.8978657722473145, -0.0002867958974093199], "min" : [0.2761135399341583, -0.9995703101158142], "name" : "TEXCOORD_0"}, {"bufferView" : 1, "byteOffset" : 20, "componentType" : 5126, "count" : 3588, "type" : "VEC3", "max" : [1.0000044107437134, 1.0000044107437134, 1.0000044107437134], "min" : [-1.0000044107437134, -1.0000044107437134, -1.0000044107437134], "name" : "NORMAL"}, {"bufferView" : 0, "byteOffset" : 7176, "componentType" : 5123, "count" : 1602, "type" : "SCALAR", "max" : [1601], "min" : [0]}, {"bufferView" : 2, "byteOffset" : 0, "componentType" : 5126, "count" : 1602, "type" : "VEC3", "max" : [0.6699999570846558, 0.17499999701976776, 0.050999999046325684], "min" : [-0.6699999570846558, -0.17499999701976776, 0], "name" : "POSITION"}, {"bufferView" : 2, "byteOffset" : 12, "componentType" : 5126, "count" : 1602, "type" : "VEC2", "max" : [0.7463250756263733, -0.0004297072591725737], "min" : [0.44793763756752014, -0.8772093057632446], "name" : "TEXCOORD_0"}, {"bufferView" : 2, "byteOffset" : 20, "componentType" : 5126, "count" : 1602, "type" : "VEC3", "max" : [1.0000044107437134, 1.0000044107437134, 1.644350413698703E-05], "min" : [-1.0000044107437134, -1.0000044107437134, -0.9978633522987366], "name" : "NORMAL"}, {"bufferView" : 0, "byteOffset" : 10380, "componentType" : 5123, "count" : 12240, "type" : "SCALAR", "max" : [12239], "min" : [0]}, {"bufferView" : 3, "byteOffset" : 0, "componentType" : 5126, "count" : 12240, "type" : "VEC3", "max" : [0.796000063419342, 0.15000000596046448, 0.010000020265579224], "min" : [-0.7560003399848938, -0.15000000596046448, -0.3699999451637268], "name" : "POSITION"}, {"bufferView" : 3, "byteOffset" : 12, "componentType" : 5126, "count" : 12240, "type" : "VEC2", "max" : [0.9412781000137329, -0.39583519101142883], "min" : [0.35545283555984497, -0.8859314918518066], "name" : "TEXCOORD_0"}, {"bufferView" : 3, "byteOffset" : 20, "componentType" : 5126, "count" : 12240, "type" : "VEC3", "max" : [1.0000044107437134, 1.0000044107437134, 1.0000044107437134], "min" : [-1.0000044107437134, -0.995189368724823, -1.0000044107437134], "name" : "NORMAL"}, {"bufferView" : 0, "byteOffset" : 34860, "componentType" : 5123, "count" : 708, "type" : "SCALAR", "max" : [707], "min" : [0]}, {"bufferView" : 4, "byteOffset" : 0, "componentType" : 5126, "count" : 708, "type" : "VEC3", "max" : [0.3799999952316284, 0.16249999403953552, 0.020000100135803223], "min" : [-0.3799999952316284, -0.16249999403953552, 0], "name" : "POSITION"}, {"bufferView" : 4, "byteOffset" : 12, "componentType" : 5126, "count" : 708, "type" : "VEC2", "max" : [0.7874658703804016, -0.00042973697418347], "min" : [0.00043082406045868993, -0.9240185618400574], "name" : "TEXCOORD_0"}, {"bufferView" : 4, "byteOffset" : 20, "componentType" : 5126, "count" : 708, "type" : "VEC3", "max" : [1.0000044107437134, 0.9951885938644409, 0.9951890707015991], "min" : [-1.0000044107437134, -0.9951885938644409, -0.9951890707015991], "name" : "NORMAL"}, {"bufferView" : 0, "byteOffset" : 36276, "componentType" : 5123, "count" : 2820, "type" : "SCALAR", "max" : [2819], "min" : [0]}, {"bufferView" : 5, "byteOffset" : 0, "componentType" : 5126, "count" : 2820, "type" : "VEC3", "max" : [0.3799999952316284, 0.16249999403953552, 0.020000100135803223], "min" : [-0.3799999952316284, -0.16249999403953552, -0.10000000149011612], "name" : "POSITION"}, {"bufferView" : 5, "byteOffset" : 12, "componentType" : 5126, "count" : 2820, "type" : "VEC2", "max" : [0.9882251620292664, -0.39583519101142883], "min" : [-0.0001286768529098481, -0.9150916337966919], "name" : "TEXCOORD_0"}, {"bufferView" : 5, "byteOffset" : 20, "componentType" : 5126, "count" : 2820, "type" : "VEC3", "max" : [1.0000044107437134, 1.0000044107437134, 1.0000044107437134], "min" : [-1.0000044107437134, -1.0000044107437134, -1.0000044107437134], "name" : "NORMAL"}, {"bufferView" : 0, "byteOffset" : 41916, "componentType" : 5123, "count" : 3240, "type" : "SCALAR", "max" : [3239], "min" : [0]}, {"bufferView" : 6, "byteOffset" : 0, "componentType" : 5126, "count" : 3240, "type" : "VEC3", "max" : [0.356000155210495, 0.28835785388946533, 9.908217996068558E-11], "min" : [-0.356000155210495, -0.007500007748603821, -0.09999999403953552], "name" : "POSITION"}, {"bufferView" : 6, "byteOffset" : 12, "componentType" : 5126, "count" : 3240, "type" : "VEC2", "max" : [0.9855017066001892, -8.488789899274707E-05], "min" : [0.000429689884185791, -0.9904618859291077], "name" : "TEXCOORD_0"}, {"bufferView" : 6, "byteOffset" : 20, "componentType" : 5126, "count" : 3240, "type" : "VEC3", "max" : [1.0000044107437134, 1.0000044107437134, 1.0000044107437134], "min" : [-1.0000044107437134, -1.0000044107437134, -1.0000044107437134], "name" : "NORMAL"}, {"bufferView" : 0, "byteOffset" : 48396, "componentType" : 5123, "count" : 708, "type" : "SCALAR", "max" : [707], "min" : [0]}, {"bufferView" : 7, "byteOffset" : 0, "componentType" : 5126, "count" : 708, "type" : "VEC3", "max" : [0.3799999952316284, 0.16249999403953552, 0.020000100135803223], "min" : [-0.3799999952316284, -0.16249999403953552, 0], "name" : "POSITION"}, {"bufferView" : 7, "byteOffset" : 12, "componentType" : 5126, "count" : 708, "type" : "VEC2", "max" : [0.7874658703804016, -0.00042973697418347], "min" : [0.00043082406045868993, -0.9240185618400574], "name" : "TEXCOORD_0"}, {"bufferView" : 7, "byteOffset" : 20, "componentType" : 5126, "count" : 708, "type" : "VEC3", "max" : [1.0000044107437134, 0.9951885938644409, 0.9951890707015991], "min" : [-1.0000044107437134, -0.9951885938644409, -0.9951890707015991], "name" : "NORMAL"}, {"bufferView" : 0, "byteOffset" : 49812, "componentType" : 5123, "count" : 708, "type" : "SCALAR", "max" : [707], "min" : [0]}, {"bufferView" : 8, "byteOffset" : 0, "componentType" : 5126, "count" : 708, "type" : "VEC3", "max" : [0.3799999952316284, 0.16249999403953552, 0.020000100135803223], "min" : [-0.3799999952316284, -0.16249999403953552, 0], "name" : "POSITION"}, {"bufferView" : 8, "byteOffset" : 12, "componentType" : 5126, "count" : 708, "type" : "VEC2", "max" : [0.7874658703804016, -0.00042973697418347], "min" : [0.00043082406045868993, -0.9240185618400574], "name" : "TEXCOORD_0"}, {"bufferView" : 8, "byteOffset" : 20, "componentType" : 5126, "count" : 708, "type" : "VEC3", "max" : [1.0000044107437134, 0.9951885938644409, 0.9951890707015991], "min" : [-1.0000044107437134, -0.9951885938644409, -0.9951890707015991], "name" : "NORMAL"}], "asset" : {"generator" : "Aspose.3D 23.9.0", "version" : "2.0"}, "buffers" : [{"uri" : "data:application/octet-stream;base64,", "byteLength" : 870912}], "bufferViews" : [{"buffer" : 0, "byteOffset" : 0, "byteLength" : 51228, "target" : 34963}, {"buffer" : 0, "byteOffset" : 51232, "byteLength" : 114816, "byteStride" : 32, "target" : 34962}, {"buffer" : 0, "byteOffset" : 166052, "byteLength" : 51264, "byteStride" : 32, "target" : 34962}, {"buffer" : 0, "byteOffset" : 217320, "byteLength" : 391680, "byteStride" : 32, "target" : 34962}, {"buffer" : 0, "byteOffset" : 609004, "byteLength" : 22656, "byteStride" : 32, "target" : 34962}, {"buffer" : 0, "byteOffset" : 631664, "byteLength" : 90240, "byteStride" : 32, "target" : 34962}, {"buffer" : 0, "byteOffset" : 721908, "byteLength" : 103680, "byteStride" : 32, "target" : 34962}, {"buffer" : 0, "byteOffset" : 825592, "byteLength" : 22656, "byteStride" : 32, "target" : 34962}, {"buffer" : 0, "byteOffset" : 848252, "byteLength" : 22656, "byteStride" : 32, "target" : 34962}], "images" : [{"uri" : "data:image/jpeg;base64,"}, {"uri" : "data:image/jpeg;base64,"}], "materials" : [{"name" : "Ventura_notched_bookshelf_160x36x76", "pbrMetallicRoughness" : {"baseColorFactor" : [1, 1, 1, 1], "baseColorTexture" : {"index" : 1, "texCoord" : 0}, "metallicFactor" : 0, "roughnessFactor" : 0}, "normalTexture" : {"index" : 0, "texCoord" : 0, "scale" : 1}, "emissiveFactor" : [0, 0, 0], "alphaMode" : "OPAQUE", "doubleSided" : false}, {"name" : "Ventura_notched_bookshelf_160x36x76", "pbrMetallicRoughness" : {"baseColorFactor" : [1, 1, 1, 1], "baseColorTexture" : {"index" : 1, "texCoord" : 0}, "metallicFactor" : 0, "roughnessFactor" : 0}, "normalTexture" : {"index" : 0, "texCoord" : 0, "scale" : 1}, "emissiveFactor" : [0, 0, 0], "alphaMode" : "OPAQUE", "doubleSided" : false}, {"name" : "Ventura_notched_bookshelf_160x36x76", "pbrMetallicRoughness" : {"baseColorFactor" : [1, 1, 1, 1], "baseColorTexture" : {"index" : 1, "texCoord" : 0}, "metallicFactor" : 0, "roughnessFactor" : 0}, "normalTexture" : {"index" : 0, "texCoord" : 0, "scale" : 1}, "emissiveFactor" : [0, 0, 0], "alphaMode" : "OPAQUE", "doubleSided" : false}, {"name" : "Ventura_notched_bookshelf_160x36x76", "pbrMetallicRoughness" : {"baseColorFactor" : [1, 1, 1, 1], "baseColorTexture" : {"index" : 1, "texCoord" : 0}, "metallicFactor" : 0, "roughnessFactor" : 0}, "normalTexture" : {"index" : 0, "texCoord" : 0, "scale" : 1}, "emissiveFactor" : [0, 0, 0], "alphaMode" : "OPAQUE", "doubleSided" : false}, {"name" : "Ventura_notched_bookshelf_160x36x76", "pbrMetallicRoughness" : {"baseColorFactor" : [1, 1, 1, 1], "baseColorTexture" : {"index" : 1, "texCoord" : 0}, "metallicFactor" : 0, "roughnessFactor" : 0}, "normalTexture" : {"index" : 0, "texCoord" : 0, "scale" : 1}, "emissiveFactor" : [0, 0, 0], "alphaMode" : "OPAQUE", "doubleSided" : false}, {"name" : "Ventura_notched_bookshelf_160x36x76", "pbrMetallicRoughness" : {"baseColorFactor" : [1, 1, 1, 1], "baseColorTexture" : {"index" : 1, "texCoord" : 0}, "metallicFactor" : 0, "roughnessFactor" : 0}, "normalTexture" : {"index" : 0, "texCoord" : 0, "scale" : 1}, "emissiveFactor" : [0, 0, 0], "alphaMode" : "OPAQUE", "doubleSided" : false}, {"name" : "Ventura_notched_bookshelf_160x36x76", "pbrMetallicRoughness" : {"baseColorFactor" : [1, 1, 1, 1], "baseColorTexture" : {"index" : 1, "texCoord" : 0}, "metallicFactor" : 0, "roughnessFactor" : 0}, "normalTexture" : {"index" : 0, "texCoord" : 0, "scale" : 1}, "emissiveFactor" : [0, 0, 0], "alphaMode" : "OPAQUE", "doubleSided" : false}, {"name" : "Ventura_notched_bookshelf_160x36x76", "pbrMetallicRoughness" : {"baseColorFactor" : [1, 1, 1, 1], "baseColorTexture" : {"index" : 1, "texCoord" : 0}, "metallicFactor" : 0, "roughnessFactor" : 0}, "normalTexture" : {"index" : 0, "texCoord" : 0, "scale" : 1}, "emissiveFactor" : [0, 0, 0], "alphaMode" : "OPAQUE", "doubleSided" : false}], "meshes" : [{"primitives" : [{"attributes" : {"POSITION" : 1, "TEXCOORD_0" : 2, "NORMAL" : 3}, "indices" : 0, "material" : 0, "mode" : 4}], "name" : "Plane_001"}, {"primitives" : [{"attributes" : {"POSITION" : 5, "TEXCOORD_0" : 6, "NORMAL" : 7}, "indices" : 4, "material" : 1, "mode" : 4}], "name" : "Plane_002"}, {"primitives" : [{"attributes" : {"POSITION" : 9, "TEXCOORD_0" : 10, "NORMAL" : 11}, "indices" : 8, "material" : 2, "mode" : 4}], "name" : "Plane_003"}, {"primitives" : [{"attributes" : {"POSITION" : 13, "TEXCOORD_0" : 14, "NORMAL" : 15}, "indices" : 12, "material" : 3, "mode" : 4}], "name" : "Plane_004"}, {"primitives" : [{"attributes" : {"POSITION" : 17, "TEXCOORD_0" : 18, "NORMAL" : 19}, "indices" : 16, "material" : 4, "mode" : 4}], "name" : "Plane_006"}, {"primitives" : [{"attributes" : {"POSITION" : 21, "TEXCOORD_0" : 22, "NORMAL" : 23}, "indices" : 20, "material" : 5, "mode" : 4}], "name" : "Plane_008"}, {"primitives" : [{"attributes" : {"POSITION" : 25, "TEXCOORD_0" : 26, "NORMAL" : 27}, "indices" : 24, "material" : 6, "mode" : 4}], "name" : "Plane_004"}, {"primitives" : [{"attributes" : {"POSITION" : 29, "TEXCOORD_0" : 30, "NORMAL" : 31}, "indices" : 28, "material" : 7, "mode" : 4}], "name" : "Plane_004"}], "nodes" : [{"mesh" : 1, "name" : "Leg"}, {"matrix" : [1, 0, 0, 0, 0, 1, 0, 0, 0, 0, 1, 0, -0.01999986357986927, 0, 0.5849999189376831, 1], "mesh" : 2, "name" : "Rack_Holder"}, {"matrix" : [1, 0, 0, 0, 0, 1, 0, 0, 0, 0, 1, 0, -0.39375007152557373, -0.007499992847442627, 0.5149999260902405, 1], "mesh" : 3, "name" : "Rack_1"}, {"matrix" : [1, 0, 0, 0, 0, 1, 0, 0, 0, 0, 1, 0, 0, -0.14792892336845398, 0, 1], "mesh" : 5, "name" : "Drawer"}, {"children" : [3], "matrix" : [1, 0, 0, 0, 0, 1, 0, 0, 0, 0, 1, 0, 0.3950001001358032, -0.007499992847442627, 0.5149999260902405, 1], "mesh" : 4, "name" : "Drawer_Holder"}, {"matrix" : [1, 0, 0, 0, 0, 1, 0, 0, 0, 0, 1, 0, -0.39375007152557373, -0.007499992847442627, 0.2749999761581421, 1], "mesh" : 6, "name" : "Rack_2"}, {"matrix" : [1, 0, 0, 0, 0, 1, 0, 0, 0, 0, 1, 0, 0.3960002064704895, -0.007499992847442627, 0.2749999761581421, 1], "mesh" : 7, "name" : "Rack_3"}, {"children" : [0, 1, 2, 4, 5, 6], "mesh" : 0, "name" : "Ventura_notched_bookshelf_160x36x76"}], "samplers" : [{"magFilter" : 9729, "minFilter" : 9729, "wrapS" : 10497, "wrapT" : 10497}, {"magFilter" : 9729, "minFilter" : 9729, "wrapS" : 10497, "wrapT" : 10497}], "scene" : 0, "scenes" : [{"nodes" : [7]}], "textures" : [{"sampler" : 0, "source" : 0, "name" : "Image_Texture_003"}, {"sampler" : 1, "source" : 1, "name" : "Image_Texture_001"}]}